<svg height="256pt" viewBox="-13 0 512 512.01782" width="512pt" xmlns="http://www.w3.org/2000/svg"><path d="m474.457031 450.226562h-315.5c-7.023437-.035156-13.382812 4.136719-16.152343 10.589844l-22.335938 51.203125h-41.929688l33.105469-75.917969c5.628907-12.871093 18.347657-21.1875 32.394531-21.1875h315.585938zm0 0" fill="#d1d4d1"/><path d="m111.644531 436.101562-33.105469 75.917969h-52.082031c-8.65625-.011719-16.761719-4.253906-21.707031-11.363281-4.941406-7.105469-6.101562-16.179688-3.097656-24.300781l19.417968-52.613281h34.515626c7.429687-.023438 14.054687-4.675782 16.597656-11.652344l24.628906-67.796875h286.015625l7.679687 23.21875c2.417969 7.210937 9.164063 12.074219 16.769532 12.09375h37.429687l14.917969 35.308593h-315.585938c-14.046874 0-26.765624 8.316407-32.394531 21.1875zm0 0" fill="#71c285"/><path d="m460.597656 512.019531h-340.128906l22.335938-51.203125c2.769531-6.453125 9.128906-10.625 16.152343-10.589844h315.5l10.59375 25.070313c3.429688 8.179687 2.535157 17.53125-2.378906 24.914063-4.917969 7.386718-13.203125 11.816406-22.074219 11.808593zm0 0" fill="#71c285"/><path d="m96.8125 344.292969-24.628906 67.796875c-2.542969 6.976562-9.167969 11.628906-16.597656 11.652344h-34.515626l22.863282-62.144532c3.804687-10.414062 13.722656-17.332031 24.808594-17.304687zm0 0" fill="#fdd7ad"/><path d="m444.707031 379.605469h-37.429687c-7.605469-.019531-14.351563-4.882813-16.769532-12.09375l-7.679687-23.21875h29.484375c10.65625-.011719 20.277344 6.398437 24.363281 16.242187zm0 0" fill="#fdd7ad"/><path d="m234.539062.316406c-64.84375 4.0625-120.683593 47.191406-141 108.90625-20.316406 61.714844-1.011718 129.578125 48.746094 171.363282 4.523438 3.691406 8.238282 8.273437 10.917969 13.460937l49.480469 99.019531c7.90625 15.851563 24.101562 25.867188 41.816406 25.867188s33.90625-10.015625 41.816406-25.867188l49.855469-99.753906c2.421875-4.703125 5.792969-8.851562 9.90625-12.179688 52.914063-43.949218 71.542969-116.960937 46.148437-180.890624-25.390624-63.925782-89.035156-104.257813-157.6875-99.925782zm0 0" fill="#e64c3c"/><path d="m376.910156 158.914062c0 73.128907-59.28125 132.414063-132.410156 132.414063-73.132812 0-132.414062-59.285156-132.414062-132.414063 0-73.128906 59.28125-132.414062 132.414062-132.414062 73.128906 0 132.410156 59.285156 132.410156 132.414062zm0 0" fill="#c03a2b"/><path d="m360.058594 158.914062c0 63.824219-51.738282 115.5625-115.558594 115.5625-63.824219 0-115.5625-51.738281-115.5625-115.5625 0-63.824218 51.738281-115.5625 115.5625-115.5625 63.820312 0 115.558594 51.738282 115.558594 115.5625zm0 0" fill="#e6e7e8"/><path d="m309.46875 122.808594-64.96875 28.867187-64.972656-28.867187 62.058594-27.628906c1.859374-.796876 3.964843-.796876 5.824218 0zm0 0" fill="#fdd7ad"/><path d="m309.46875 122.808594v67.53125c0 2.871094-1.699219 5.464844-4.324219 6.621094l-57.734375 25.6875c-.925781.375-1.914062.582031-2.910156.617187v-71.589844zm0 0" fill="#cb8252"/><path d="m244.5 151.675781v71.589844c-1-.035156-1.988281-.242187-2.914062-.617187l-57.820313-25.6875c-2.582031-1.191407-4.234375-3.777344-4.238281-6.621094v-67.53125zm0 0" fill="#805333"/></svg>